<?xml version="1.0" encoding="UTF-8"?><svg xmlns="http://www.w3.org/2000/svg" xmlns:xlink="http://www.w3.org/1999/xlink" fill-opacity="1" color-rendering="auto" color-interpolation="auto" text-rendering="auto" stroke="black" stroke-linecap="square" width="813" stroke-miterlimit="10" shape-rendering="auto" stroke-opacity="1" fill="black" stroke-dasharray="none" font-weight="normal" stroke-width="1" height="339" font-family="'Dialog'" font-style="normal" stroke-linejoin="miter" font-size="12px" stroke-dashoffset="0" image-rendering="auto">
  <!--Generated by ySVG 2.6-->
  <defs id="genericDefs"/>
  <g>
    <defs id="defs1">
      <clipPath clipPathUnits="userSpaceOnUse" id="clipPath1">
        <path d="M0 0 L813 0 L813 339 L0 339 L0 0 Z"/>
      </clipPath>
      <clipPath clipPathUnits="userSpaceOnUse" id="clipPath2">
        <path d="M31 273 L844 273 L844 612 L31 612 L31 273 Z"/>
      </clipPath>
    </defs>
    <g fill="white" text-rendering="geometricPrecision" shape-rendering="geometricPrecision" transform="translate(-31,-273)" stroke="white">
      <rect x="31" width="813" height="339" y="273" clip-path="url(#clipPath2)" stroke="none"/>
    </g>
    <g fill="rgb(153,204,255)" text-rendering="geometricPrecision" shape-rendering="geometricPrecision" transform="matrix(1,0,0,1,-31,-273)" stroke="rgb(153,204,255)">
      <rect x="46" width="145" height="30" y="349" clip-path="url(#clipPath2)" stroke="none"/>
    </g>
    <g text-rendering="geometricPrecision" stroke-miterlimit="1.45" shape-rendering="geometricPrecision" font-family="sans-serif" transform="matrix(1,0,0,1,-31,-273)" stroke-linecap="butt">
      <text x="66.876" xml:space="preserve" y="368.5352" clip-path="url(#clipPath2)" stroke="none">C1. Formalization</text>
    </g>
    <g fill="rgb(153,204,255)" text-rendering="geometricPrecision" shape-rendering="geometricPrecision" transform="matrix(1,0,0,1,-31,-273)" stroke="rgb(153,204,255)">
      <rect x="254" width="145" height="30" y="349" clip-path="url(#clipPath2)" stroke="none"/>
    </g>
    <g text-rendering="geometricPrecision" stroke-miterlimit="1.45" shape-rendering="geometricPrecision" font-family="sans-serif" transform="matrix(1,0,0,1,-31,-273)" stroke-linecap="butt">
      <text x="274.0146" xml:space="preserve" y="368.5352" clip-path="url(#clipPath2)" stroke="none">C2. Heterogeneity</text>
    </g>
    <g fill="rgb(153,204,255)" text-rendering="geometricPrecision" shape-rendering="geometricPrecision" transform="matrix(1,0,0,1,-31,-273)" stroke="rgb(153,204,255)">
      <rect x="452" width="145" height="30" y="349" clip-path="url(#clipPath2)" stroke="none"/>
    </g>
    <g text-rendering="geometricPrecision" stroke-miterlimit="1.45" shape-rendering="geometricPrecision" font-family="sans-serif" transform="matrix(1,0,0,1,-31,-273)" stroke-linecap="butt">
      <text x="485.8691" xml:space="preserve" y="368.5352" clip-path="url(#clipPath2)" stroke="none">C3. Evolution</text>
    </g>
    <g fill="rgb(153,204,255)" text-rendering="geometricPrecision" shape-rendering="geometricPrecision" transform="matrix(1,0,0,1,-31,-273)" stroke="rgb(153,204,255)">
      <rect x="650" width="194" height="30" y="349" clip-path="url(#clipPath2)" stroke="none"/>
    </g>
    <g text-rendering="geometricPrecision" stroke-miterlimit="1.45" shape-rendering="geometricPrecision" font-family="sans-serif" transform="matrix(1,0,0,1,-31,-273)" stroke-linecap="butt">
      <text x="664.9248" xml:space="preserve" y="368.5352" clip-path="url(#clipPath2)" stroke="none">C4. Validation &amp; Verification</text>
    </g>
    <g fill="rgb(153,204,255)" text-rendering="geometricPrecision" shape-rendering="geometricPrecision" transform="matrix(1,0,0,1,-31,-273)" stroke="rgb(153,204,255)">
      <rect x="383" width="98" height="30" y="425" clip-path="url(#clipPath2)" stroke="none"/>
    </g>
    <g text-rendering="geometricPrecision" stroke-miterlimit="1.45" shape-rendering="geometricPrecision" font-family="sans-serif" transform="matrix(1,0,0,1,-31,-273)" stroke-linecap="butt">
      <text x="405.4072" xml:space="preserve" y="444.5352" clip-path="url(#clipPath2)" stroke="none">C5. ASoT</text>
    </g>
    <g fill="rgb(153,204,255)" text-rendering="geometricPrecision" shape-rendering="geometricPrecision" transform="matrix(1,0,0,1,-31,-273)" stroke="rgb(153,204,255)">
      <rect x="353.5" width="157" height="30" y="515" clip-path="url(#clipPath2)" stroke="none"/>
    </g>
    <g text-rendering="geometricPrecision" stroke-miterlimit="1.45" shape-rendering="geometricPrecision" font-family="sans-serif" transform="matrix(1,0,0,1,-31,-273)" stroke-linecap="butt">
      <text x="359.7627" xml:space="preserve" y="534.5352" clip-path="url(#clipPath2)" stroke="none">C6. Unified Methodology</text>
    </g>
    <g fill="rgb(153,204,255)" text-rendering="geometricPrecision" shape-rendering="geometricPrecision" transform="matrix(1,0,0,1,-31,-273)" stroke="rgb(153,204,255)">
      <rect x="69.5" width="98" height="30" y="448" clip-path="url(#clipPath2)" stroke="none"/>
    </g>
    <g text-rendering="geometricPrecision" stroke-miterlimit="1.45" shape-rendering="geometricPrecision" font-family="sans-serif" transform="matrix(1,0,0,1,-31,-273)" stroke-linecap="butt">
      <text x="77.7334" xml:space="preserve" y="467.5352" clip-path="url(#clipPath2)" stroke="none">C7. Scalability</text>
    </g>
    <g fill="rgb(153,204,255)" text-rendering="geometricPrecision" shape-rendering="geometricPrecision" transform="matrix(1,0,0,1,-31,-273)" stroke="rgb(153,204,255)">
      <rect x="31.5" width="174" height="30" y="582" clip-path="url(#clipPath2)" stroke="none"/>
    </g>
    <g text-rendering="geometricPrecision" stroke-miterlimit="1.45" shape-rendering="geometricPrecision" font-family="sans-serif" transform="matrix(1,0,0,1,-31,-273)" stroke-linecap="butt">
      <text x="43.4854" xml:space="preserve" y="601.5352" clip-path="url(#clipPath2)" stroke="none">C8. Education &amp; Adoption</text>
    </g>
    <g fill="rgb(153,204,255)" text-rendering="geometricPrecision" shape-rendering="geometricPrecision" transform="matrix(1,0,0,1,-31,-273)" stroke="rgb(153,204,255)">
      <rect x="197.5" width="98" height="30" y="515" clip-path="url(#clipPath2)" stroke="none"/>
    </g>
    <g text-rendering="geometricPrecision" stroke-miterlimit="1.45" shape-rendering="geometricPrecision" font-family="sans-serif" transform="matrix(1,0,0,1,-31,-273)" stroke-linecap="butt">
      <text x="206.873" xml:space="preserve" y="534.5352" clip-path="url(#clipPath2)" stroke="none">C9. Humanity</text>
    </g>
    <g fill="rgb(153,204,255)" text-rendering="geometricPrecision" shape-rendering="geometricPrecision" transform="matrix(1,0,0,1,-31,-273)" stroke="rgb(153,204,255)">
      <rect x="348" width="168" height="30" y="273" clip-path="url(#clipPath2)" stroke="none"/>
    </g>
    <g text-rendering="geometricPrecision" stroke-miterlimit="1.45" shape-rendering="geometricPrecision" font-family="sans-serif" transform="matrix(1,0,0,1,-31,-273)" stroke-linecap="butt">
      <text x="360.1113" xml:space="preserve" y="292.5352" clip-path="url(#clipPath2)" stroke="none">C10. Mesure of progress</text>
      <path fill="none" d="M383 428.1212 L188.1498 380.8848" clip-path="url(#clipPath2)"/>
      <path d="M180.375 379 L190.8592 386.6865 L189.1217 381.1204 L193.2152 376.968 Z" clip-path="url(#clipPath2)" stroke="none"/>
      <path fill="none" d="M411.1776 425 L353.8135 383.6761" clip-path="url(#clipPath2)"/>
      <path d="M347.3224 379 L354.1365 390.071 L354.6248 384.2606 L359.9816 381.9571 Z" clip-path="url(#clipPath2)" stroke="none"/>
      <path fill="none" d="M450.2566 425 L500.0622 384.0786" clip-path="url(#clipPath2)"/>
      <path d="M506.2434 379 L493.7974 382.7547 L499.2895 384.7134 L500.1457 390.4812 Z" clip-path="url(#clipPath2)" stroke="none"/>
      <path fill="none" d="M481 428.1778 L677.0521 380.8763" clip-path="url(#clipPath2)"/>
      <path d="M684.829 379 L671.991 376.9539 L676.08 381.1109 L674.3364 386.675 Z" clip-path="url(#clipPath2)" stroke="none"/>
      <path fill="none" d="M432 515 L432 463" clip-path="url(#clipPath2)"/>
      <path d="M432 455 L427 467 L432 464 L437 467 Z" clip-path="url(#clipPath2)" stroke="none"/>
      <path fill="none" d="M361.8134 515 L175.3233 475.1441" clip-path="url(#clipPath2)"/>
      <path d="M167.5 473.4721 L178.19 480.8697 L176.3013 475.3531 L180.28 471.0905 Z" clip-path="url(#clipPath2)" stroke="none"/>
      <path fill="none" d="M118.5 448 L118.5 387" clip-path="url(#clipPath2)"/>
      <path d="M118.5 379 L113.5 391 L118.5 388 L123.5 391 Z" clip-path="url(#clipPath2)" stroke="none"/>
      <path fill="none" d="M118.5 582 L118.5 486" clip-path="url(#clipPath2)"/>
      <path d="M118.5 478 L113.5 490 L118.5 487 L123.5 490 Z" clip-path="url(#clipPath2)" stroke="none"/>
      <path fill="none" d="M188.6866 582 L353.9901 546.672" clip-path="url(#clipPath2)"/>
      <path d="M361.8134 545 L349.0334 542.6184 L353.0122 546.881 L351.1234 552.3976 Z" clip-path="url(#clipPath2)" stroke="none"/>
      <path fill="none" d="M147.1567 582 L210.7556 548.71" clip-path="url(#clipPath2)"/>
      <path d="M217.8433 545 L204.8929 546.1351 L209.8696 549.1737 L209.5304 554.9948 Z" clip-path="url(#clipPath2)" stroke="none"/>
      <path fill="none" d="M353.5 530 L303.5 530" clip-path="url(#clipPath2)"/>
      <path d="M295.5 530 L307.5 535 L304.5 530 L307.5 525 Z" clip-path="url(#clipPath2)" stroke="none"/>
      <path fill="none" d="M253.7289 515 L315.7979 386.2068" clip-path="url(#clipPath2)"/>
      <path d="M319.2711 379 L309.5572 387.6394 L315.3638 387.1076 L318.5656 391.9808 Z" clip-path="url(#clipPath2)" stroke="none"/>
      <path fill="none" d="M234.9337 515 L134.9513 385.3353" clip-path="url(#clipPath2)"/>
      <path d="M130.0663 379 L133.4343 391.5561 L135.562 386.1272 L141.3534 385.4498 Z" clip-path="url(#clipPath2)" stroke="none"/>
      <path fill="none" d="M217.8433 515 L154.2444 481.71" clip-path="url(#clipPath2)"/>
      <path d="M147.1567 478 L155.4696 487.9948 L155.1304 482.1737 L160.1071 479.1352 Z" clip-path="url(#clipPath2)" stroke="none"/>
      <path fill="none" d="M411.1776 303 L353.8135 344.3239" clip-path="url(#clipPath2)"/>
      <path d="M347.3224 349 L359.9816 346.0429 L354.6248 343.7394 L354.1365 337.929 Z" clip-path="url(#clipPath2)" stroke="none"/>
      <path fill="none" d="M370.125 303 L188.1498 347.1152" clip-path="url(#clipPath2)"/>
      <path d="M180.375 349 L193.2152 351.032 L189.1217 346.8796 L190.8592 341.3135 Z" clip-path="url(#clipPath2)" stroke="none"/>
      <path fill="none" d="M450.2566 303 L500.0622 343.9214" clip-path="url(#clipPath2)"/>
      <path d="M506.2434 349 L500.1457 337.5188 L499.2895 343.2866 L493.7974 345.2453 Z" clip-path="url(#clipPath2)" stroke="none"/>
      <path fill="none" d="M494.1711 303 L677.0521 347.1237" clip-path="url(#clipPath2)"/>
      <path d="M684.829 349 L674.3364 341.325 L676.08 346.8891 L671.991 351.0461 Z" clip-path="url(#clipPath2)" stroke="none"/>
    </g>
  </g>
</svg>
